<mxfile host="Electron" agent="Mozilla/5.0 (Windows NT 10.0; Win64; x64) AppleWebKit/537.36 (KHTML, like Gecko) draw.io/24.7.8 Chrome/128.0.6613.36 Electron/32.0.1 Safari/537.36" version="24.7.8">
  <diagram id="lyTLisJJIofeR1_NnUUN" name="Page-2">
    <mxGraphModel dx="1434" dy="836" grid="1" gridSize="10" guides="1" tooltips="1" connect="1" arrows="1" fold="1" page="1" pageScale="1" pageWidth="850" pageHeight="1100" math="0" shadow="0">
      <root>
        <mxCell id="0" />
        <mxCell id="1" parent="0" />
        <mxCell id="JnvJV3Z1eaSUhFazPmFS-1" value="" style="rounded=0;whiteSpace=wrap;html=1;fillColor=#f5f5f5;strokeColor=none;fontColor=#333333;" parent="1" vertex="1">
          <mxGeometry x="130" y="160" width="410" height="350" as="geometry" />
        </mxCell>
        <mxCell id="JnvJV3Z1eaSUhFazPmFS-2" value="AKS" style="image;aspect=fixed;html=1;points=[];align=center;fontSize=12;image=img/lib/azure2/compute/Kubernetes_Services.svg;" parent="1" vertex="1">
          <mxGeometry x="150" y="180" width="68" height="60" as="geometry" />
        </mxCell>
        <mxCell id="JnvJV3Z1eaSUhFazPmFS-12" style="edgeStyle=orthogonalEdgeStyle;rounded=0;orthogonalLoop=1;jettySize=auto;html=1;entryX=0.5;entryY=0;entryDx=0;entryDy=0;" parent="1" source="JnvJV3Z1eaSUhFazPmFS-3" target="JnvJV3Z1eaSUhFazPmFS-4" edge="1">
          <mxGeometry relative="1" as="geometry" />
        </mxCell>
        <mxCell id="JnvJV3Z1eaSUhFazPmFS-3" value="IceCreamAPI&lt;div&gt;Container&lt;/div&gt;" style="rounded=1;whiteSpace=wrap;html=1;" parent="1" vertex="1">
          <mxGeometry x="310" y="200" width="112.5" height="100" as="geometry" />
        </mxCell>
        <mxCell id="JnvJV3Z1eaSUhFazPmFS-4" value="Cartoonizer&lt;div&gt;Container&lt;/div&gt;" style="rounded=1;whiteSpace=wrap;html=1;" parent="1" vertex="1">
          <mxGeometry x="309.25" y="360" width="112.5" height="100" as="geometry" />
        </mxCell>
        <mxCell id="JnvJV3Z1eaSUhFazPmFS-5" value="Cartoonizer&lt;div&gt;Container&lt;/div&gt;" style="rounded=1;whiteSpace=wrap;html=1;" parent="1" vertex="1">
          <mxGeometry x="318.25" y="370" width="112.5" height="100" as="geometry" />
        </mxCell>
        <mxCell id="JnvJV3Z1eaSUhFazPmFS-6" value="Cartoonizer&lt;div&gt;Container&lt;/div&gt;" style="rounded=1;whiteSpace=wrap;html=1;" parent="1" vertex="1">
          <mxGeometry x="328.25" y="380" width="112.5" height="100" as="geometry" />
        </mxCell>
        <mxCell id="JnvJV3Z1eaSUhFazPmFS-7" value="AI Search" style="image;aspect=fixed;html=1;points=[];align=center;fontSize=12;image=img/lib/azure2/app_services/Search_Services.svg;" parent="1" vertex="1">
          <mxGeometry x="630" y="316" width="68" height="49.120000000000005" as="geometry" />
        </mxCell>
        <mxCell id="JnvJV3Z1eaSUhFazPmFS-8" value="Content" style="verticalLabelPosition=bottom;html=1;verticalAlign=top;align=center;strokeColor=none;fillColor=#00BEF2;shape=mxgraph.azure.storage_blob;" parent="1" vertex="1">
          <mxGeometry x="639" y="431" width="50" height="45" as="geometry" />
        </mxCell>
        <mxCell id="JnvJV3Z1eaSUhFazPmFS-10" style="edgeStyle=orthogonalEdgeStyle;rounded=0;orthogonalLoop=1;jettySize=auto;html=1;entryX=0.5;entryY=0;entryDx=0;entryDy=0;entryPerimeter=0;" parent="1" source="JnvJV3Z1eaSUhFazPmFS-7" target="JnvJV3Z1eaSUhFazPmFS-8" edge="1">
          <mxGeometry relative="1" as="geometry">
            <mxPoint x="660" y="426" as="targetPoint" />
          </mxGeometry>
        </mxCell>
        <mxCell id="JnvJV3Z1eaSUhFazPmFS-11" style="rounded=0;orthogonalLoop=1;jettySize=auto;html=1;entryX=0.061;entryY=0.768;entryDx=0;entryDy=0;entryPerimeter=0;" parent="1" source="JnvJV3Z1eaSUhFazPmFS-3" target="JnvJV3Z1eaSUhFazPmFS-7" edge="1">
          <mxGeometry relative="1" as="geometry" />
        </mxCell>
        <mxCell id="zIaTid1gQZ8m17bVv13c-1" value="OpenAI" style="image;aspect=fixed;html=1;points=[];align=center;fontSize=12;image=img/lib/azure2/ai_machine_learning/Azure_OpenAI.svg;" vertex="1" parent="1">
          <mxGeometry x="640" y="191" width="49" height="49" as="geometry" />
        </mxCell>
        <mxCell id="zIaTid1gQZ8m17bVv13c-4" style="edgeStyle=orthogonalEdgeStyle;rounded=0;orthogonalLoop=1;jettySize=auto;html=1;entryX=0.49;entryY=1.143;entryDx=0;entryDy=0;entryPerimeter=0;" edge="1" parent="1" source="JnvJV3Z1eaSUhFazPmFS-7" target="zIaTid1gQZ8m17bVv13c-1">
          <mxGeometry relative="1" as="geometry" />
        </mxCell>
        <mxCell id="zIaTid1gQZ8m17bVv13c-5" style="rounded=0;orthogonalLoop=1;jettySize=auto;html=1;entryX=0.041;entryY=0.531;entryDx=0;entryDy=0;entryPerimeter=0;" edge="1" parent="1" source="JnvJV3Z1eaSUhFazPmFS-3" target="zIaTid1gQZ8m17bVv13c-1">
          <mxGeometry relative="1" as="geometry" />
        </mxCell>
      </root>
    </mxGraphModel>
  </diagram>
</mxfile>
